<?xml version="1.0" encoding="UTF-8"?> <svg xmlns="http://www.w3.org/2000/svg" xmlns:xlink="http://www.w3.org/1999/xlink" id="Seer_Medical_RGB" data-name="Seer Medical RGB" width="190.38" height="28.027" viewBox="0 0 190.38 28.027"><defs><clipPath id="clip-path"><rect id="Rect치ngulo_144" data-name="Rect치ngulo 144" width="186.506" height="27.502" fill="none"></rect></clipPath></defs><g id="Seer_Medical_RGB-2" data-name="Seer Medical RGB" transform="translate(93.253 13.751)"><g id="Grupo_613" data-name="Grupo 613" transform="translate(-93.253 -13.751)" clip-path="url(#clip-path)"><path id="Trazado_537" data-name="Trazado 537" d="M1.736,31.089A7.415,7.415,0,0,0,7.744,33.9c2.581,0,4.271-1.22,4.271-3.285S9.621,28.038,6.43,27.24,0,25.41,0,21.89,2.863,16.4,6.711,16.4a9.668,9.668,0,0,1,7.181,3.051l-1.736,1.924A6.946,6.946,0,0,0,6.664,18.7c-2.394,0-3.989,1.22-3.989,3.051s1.69,2.44,5.116,3.144,6.9,1.924,6.9,5.538S11.827,36.2,7.7,36.2A10.075,10.075,0,0,1,0,33.06Z" transform="translate(0 -8.702)" fill="#e40046"></path><path id="Trazado_538" data-name="Trazado 538" d="M13.958,0H6.074a.61.61,0,0,0-.422.986L9.594,5.35a.61.61,0,0,0,.845,0L14.381.986A.61.61,0,0,0,13.958,0" transform="translate(-2.93)" fill="#e40046" fill-rule="evenodd"></path><path id="Trazado_539" data-name="Trazado 539" d="M34.4,26.3c0-5.866,3.8-9.9,9.2-9.9s8.682,3.708,8.682,9.715v1.032H37.169c.188,3.942,2.628,6.57,6.477,6.57s5.491-1.83,6.289-3.989l2.44.939c-1.126,2.91-3.8,5.4-8.729,5.4C37.967,36.017,34.4,32.075,34.4,26.3m2.769-1.314h12.2C49.23,21,47.025,18.7,43.5,18.7s-6.007,2.487-6.336,6.289" transform="translate(-18.256 -8.703)" fill="#e40046"></path><path id="Trazado_540" data-name="Trazado 540" d="M76.2,26.3c0-5.866,3.8-9.9,9.2-9.9s8.682,3.708,8.682,9.715v1.032H78.969c.188,3.942,2.628,6.57,6.477,6.57s5.491-1.83,6.289-3.989l2.44.939c-1.126,2.91-3.8,5.4-8.729,5.4C79.767,36.017,76.2,32.075,76.2,26.3m2.769-1.314h12.2C91.03,21,88.825,18.7,85.3,18.7s-6.007,2.487-6.336,6.289" transform="translate(-40.438 -8.703)" fill="#e40046"></path><path id="Trazado_541" data-name="Trazado 541" d="M123.169,20.989c.7-2.534,2.253-3.989,5.679-3.989h.892v2.675H128.1c-3.848,0-4.881,2.253-4.881,6.805v9.48H120.4V17.047h2.769Z" transform="translate(-63.894 -9.022)" fill="#e40046"></path><path id="Trazado_542" data-name="Trazado 542" d="M157.077,21.005c.939-2.769,2.816-4.505,5.679-4.505s4.74,1.643,5.3,4.6c.986-2.91,3-4.6,5.96-4.6s5.82,2.44,5.82,6.664V35.648h-2.018V23.305c0-3.426-1.408-5.069-4.177-5.069s-5.163,3-5.163,7.838v9.574h-1.924V24.056c0-4.177-1.549-5.82-4.224-5.82s-5.162,2.957-5.162,7.744v9.668H155.2V16.875h1.924v4.13Z" transform="translate(-82.362 -8.756)" fill="#353535"></path><path id="Trazado_543" data-name="Trazado 543" d="M213.7,26.309c0-5.773,3.708-9.809,9.058-9.809s8.448,3.661,8.448,9.621v.7H215.671c.141,4.412,2.722,7.556,7.134,7.556s6.054-2.065,6.9-4.412l1.69.61c-1.033,2.91-3.661,5.491-8.589,5.491-5.726,0-9.1-4.083-9.1-9.762m1.924-1.032h13.469c-.094-4.505-2.487-7.134-6.383-7.134s-6.758,2.863-7.087,7.134" transform="translate(-113.407 -8.756)" fill="#353535"></path><path id="Trazado_544" data-name="Trazado 544" d="M255.1,17.665c0-5.913,3.473-9.762,8.682-9.762a7.462,7.462,0,0,1,6.9,4.271V.3h1.924V27.1h-1.924V23.25a7.462,7.462,0,0,1-6.9,4.271c-5.209-.047-8.682-3.848-8.682-9.856m15.628.141v-.282c0-4.74-2.487-7.931-6.711-7.931s-6.852,3.1-6.852,7.931V17.9c0,4.834,2.581,7.885,6.852,7.885s6.711-3.285,6.711-7.978" transform="translate(-135.377 -0.159)" fill="#353535"></path><path id="Trazado_545" data-name="Trazado 545" d="M303.34,7.04H300.9V4.6h2.44Zm-.188,22.293h-1.971V10.56h1.971Z" transform="translate(-159.683 -2.441)" fill="#353535"></path><path id="Trazado_546" data-name="Trazado 546" d="M311.6,26.262c0-5.82,3.708-9.762,9.2-9.762a8.136,8.136,0,0,1,8.448,6.523l-1.924.422a6.244,6.244,0,0,0-6.523-5.3c-4.458,0-7.181,3.191-7.181,8.072v.141c0,4.787,2.722,8.025,7.134,8.025s5.913-2.206,6.617-5.35l1.924.469c-.986,3.989-3.9,6.57-8.542,6.57-5.444,0-9.152-4.036-9.152-9.809" transform="translate(-165.361 -8.756)" fill="#353535"></path><path id="Trazado_547" data-name="Trazado 547" d="M352.747,30.714c0-3.942,3.332-5.022,6.946-5.82,2.769-.657,5.35-1.032,6.195-2.394v-.188c0-2.816-1.5-4.271-5.022-4.271s-5.585,1.173-5.585,4.365v.141h-2.018c.047-4.224,3.238-6.148,7.65-6.148s6.946,2.112,6.946,6.336V35.548h-2.018V31.887a7.148,7.148,0,0,1-6.852,4.036c-3.942.094-6.289-2.112-6.289-5.209m13.188-1.6V24.285c-1.079,1.173-3.567,1.549-5.913,2.065s-5.163,1.5-5.163,4.318,1.5,3.755,4.365,3.755a6.944,6.944,0,0,0,6.711-5.3" transform="translate(-187.172 -8.703)" fill="#353535"></path><rect id="Rect치ngulo_143" data-name="Rect치ngulo 143" width="1.924" height="26.798" transform="translate(184.582 0.094)" fill="#353535"></rect></g></g></svg> 